<svg id="visual" viewBox="0 0 675 900" width="675" height="900" xmlns="http://www.w3.org/2000/svg" xmlns:xlink="http://www.w3.org/1999/xlink" version="1.1"><path d="M0 542L16 556C32 570 64 598 96.2 603.5C128.3 609 160.7 592 192.8 591.8C225 591.7 257 608.3 289.2 624.7C321.3 641 353.7 657 385.8 643C418 629 450 585 482.2 563C514.3 541 546.7 541 578.8 550.5C611 560 643 579 659 588.5L675 598L675 901L659 901C643 901 611 901 578.8 901C546.7 901 514.3 901 482.2 901C450 901 418 901 385.8 901C353.7 901 321.3 901 289.2 901C257 901 225 901 192.8 901C160.7 901 128.3 901 96.2 901C64 901 32 901 16 901L0 901Z" fill="#6b90a7"></path><path d="M0 657L16 648.2C32 639.3 64 621.7 96.2 619.8C128.3 618 160.7 632 192.8 635.5C225 639 257 632 289.2 644.3C321.3 656.7 353.7 688.3 385.8 692.8C418 697.3 450 674.7 482.2 657.8C514.3 641 546.7 630 578.8 630C611 630 643 641 659 646.5L675 652L675 901L659 901C643 901 611 901 578.8 901C546.7 901 514.3 901 482.2 901C450 901 418 901 385.8 901C353.7 901 321.3 901 289.2 901C257 901 225 901 192.8 901C160.7 901 128.3 901 96.2 901C64 901 32 901 16 901L0 901Z" fill="#579ab1"></path><path d="M0 699L16 705.7C32 712.3 64 725.7 96.2 729C128.3 732.3 160.7 725.7 192.8 724.3C225 723 257 727 289.2 733.2C321.3 739.3 353.7 747.7 385.8 753.2C418 758.7 450 761.3 482.2 751.7C514.3 742 546.7 720 578.8 703.5C611 687 643 676 659 670.5L675 665L675 901L659 901C643 901 611 901 578.8 901C546.7 901 514.3 901 482.2 901C450 901 418 901 385.8 901C353.7 901 321.3 901 289.2 901C257 901 225 901 192.8 901C160.7 901 128.3 901 96.2 901C64 901 32 901 16 901L0 901Z" fill="#3ca5b5"></path><path d="M0 784L16 786.5C32 789 64 794 96.2 788.2C128.3 782.3 160.7 765.7 192.8 758.3C225 751 257 753 289.2 750.5C321.3 748 353.7 741 385.8 740.7C418 740.3 450 746.7 482.2 755C514.3 763.3 546.7 773.7 578.8 780C611 786.3 643 788.7 659 789.8L675 791L675 901L659 901C643 901 611 901 578.8 901C546.7 901 514.3 901 482.2 901C450 901 418 901 385.8 901C353.7 901 321.3 901 289.2 901C257 901 225 901 192.8 901C160.7 901 128.3 901 96.2 901C64 901 32 901 16 901L0 901Z" fill="#1dafb1"></path><path d="M0 860L16 848.8C32 837.7 64 815.3 96.2 804.5C128.3 793.7 160.7 794.3 192.8 796.7C225 799 257 803 289.2 813C321.3 823 353.7 839 385.8 841.2C418 843.3 450 831.7 482.2 832.2C514.3 832.7 546.7 845.3 578.8 848.2C611 851 643 844 659 840.5L675 837L675 901L659 901C643 901 611 901 578.8 901C546.7 901 514.3 901 482.2 901C450 901 418 901 385.8 901C353.7 901 321.3 901 289.2 901C257 901 225 901 192.8 901C160.7 901 128.3 901 96.2 901C64 901 32 901 16 901L0 901Z" fill="#14b8a6"></path></svg>