<svg id="visual" viewBox="0 0 900 600" width="900" height="600" xmlns="http://www.w3.org/2000/svg" xmlns:xlink="http://www.w3.org/1999/xlink" version="1.1"><path d="M0 432L21.5 424.2C43 416.3 86 400.7 128.8 391.8C171.7 383 214.3 381 257.2 376.7C300 372.3 343 365.7 385.8 376.7C428.7 387.7 471.3 416.3 514.2 419.8C557 423.3 600 401.7 642.8 387.7C685.7 373.7 728.3 367.3 771.2 364.5C814 361.7 857 362.3 878.5 362.7L900 363L900 601L878.5 601C857 601 814 601 771.2 601C728.3 601 685.7 601 642.8 601C600 601 557 601 514.2 601C471.3 601 428.7 601 385.8 601C343 601 300 601 257.2 601C214.3 601 171.7 601 128.8 601C86 601 43 601 21.5 601L0 601Z" fill="#14b8a6"></path><path d="M0 460L21.5 456.3C43 452.7 86 445.3 128.8 445C171.7 444.7 214.3 451.3 257.2 451.5C300 451.7 343 445.3 385.8 446.7C428.7 448 471.3 457 514.2 463C557 469 600 472 642.8 469.3C685.7 466.7 728.3 458.3 771.2 459C814 459.7 857 469.3 878.5 474.2L900 479L900 601L878.5 601C857 601 814 601 771.2 601C728.3 601 685.7 601 642.8 601C600 601 557 601 514.2 601C471.3 601 428.7 601 385.8 601C343 601 300 601 257.2 601C214.3 601 171.7 601 128.8 601C86 601 43 601 21.5 601L0 601Z" fill="#35bbc0"></path><path d="M0 508L21.5 499.3C43 490.7 86 473.3 128.8 470.5C171.7 467.7 214.3 479.3 257.2 488.5C300 497.7 343 504.3 385.8 502.7C428.7 501 471.3 491 514.2 488.8C557 486.7 600 492.3 642.8 496.8C685.7 501.3 728.3 504.7 771.2 495.2C814 485.7 857 463.3 878.5 452.2L900 441L900 601L878.5 601C857 601 814 601 771.2 601C728.3 601 685.7 601 642.8 601C600 601 557 601 514.2 601C471.3 601 428.7 601 385.8 601C343 601 300 601 257.2 601C214.3 601 171.7 601 128.8 601C86 601 43 601 21.5 601L0 601Z" fill="#60bdd1"></path><path d="M0 513L21.5 511.7C43 510.3 86 507.7 128.8 502.8C171.7 498 214.3 491 257.2 494.2C300 497.3 343 510.7 385.8 516.2C428.7 521.7 471.3 519.3 514.2 519.5C557 519.7 600 522.3 642.8 518C685.7 513.7 728.3 502.3 771.2 495C814 487.7 857 484.3 878.5 482.7L900 481L900 601L878.5 601C857 601 814 601 771.2 601C728.3 601 685.7 601 642.8 601C600 601 557 601 514.2 601C471.3 601 428.7 601 385.8 601C343 601 300 601 257.2 601C214.3 601 171.7 601 128.8 601C86 601 43 601 21.5 601L0 601Z" fill="#87bed8"></path><path d="M0 536L21.5 536.7C43 537.3 86 538.7 128.8 544.3C171.7 550 214.3 560 257.2 557.7C300 555.3 343 540.7 385.8 534.5C428.7 528.3 471.3 530.7 514.2 531C557 531.3 600 529.7 642.8 532.5C685.7 535.3 728.3 542.7 771.2 545.8C814 549 857 548 878.5 547.5L900 547L900 601L878.5 601C857 601 814 601 771.2 601C728.3 601 685.7 601 642.8 601C600 601 557 601 514.2 601C471.3 601 428.7 601 385.8 601C343 601 300 601 257.2 601C214.3 601 171.7 601 128.8 601C86 601 43 601 21.5 601L0 601Z" fill="#a6bfd7"></path></svg>